<svg xmlns="http://www.w3.org/2000/svg" xmlns:xlink="http://www.w3.org/1999/xlink" width="500" zoomAndPan="magnify" viewBox="0 0 375 374.999991" height="500" preserveAspectRatio="xMidYMid meet" version="1.0"><defs><g/></defs><g fill="#000000" fill-opacity="1"><g transform="translate(35.124379, 284.003792)"><g><path d="M 148.546875 -168.046875 C 145.828125 -166.578125 142.507812 -165.253906 138.59375 -164.078125 L 128.15625 -161.515625 L 109.28125 -158.96875 L 77.390625 -155.65625 C 73.222656 -154.925781 70.597656 -153.640625 69.515625 -151.796875 C 68.429688 -149.960938 68.171875 -147.441406 68.734375 -144.234375 L 69.484375 -139.90625 L 70.484375 -135.640625 L 91.34375 -15.921875 L 77.171875 -13.4375 C 76.609375 -16.632812 75.664062 -22.5 74.34375 -31.03125 C 73.019531 -39.5625 71.882812 -46.550781 70.9375 -52 L 64.109375 -96.859375 L 57.859375 -135.640625 L 56.0625 -143 C 55.613281 -145.570312 54.859375 -147.550781 53.796875 -148.9375 C 52.734375 -150.320312 50.015625 -151.003906 45.640625 -150.984375 C 41.273438 -150.972656 35.800781 -150.394531 29.21875 -149.25 L 11.328125 -145.390625 L -7.953125 -140.796875 C -8.816406 -145.765625 -7.476562 -149.707031 -3.9375 -152.625 C -0.40625 -155.550781 4.164062 -157.503906 9.78125 -158.484375 C 15.550781 -159.484375 22.300781 -160.535156 30.03125 -161.640625 C 37.757812 -162.742188 44.207031 -163.65625 49.375 -164.375 L 92.46875 -170.171875 L 129.109375 -175.796875 C 133.765625 -176.609375 137.707031 -176.515625 140.9375 -175.515625 C 144.164062 -174.515625 146.703125 -172.023438 148.546875 -168.046875 Z M 148.546875 -168.046875 "/></g></g></g><g fill="#000000" fill-opacity="1"><g transform="translate(173.099982, 259.963507)"><g><path d="M 27.453125 -8.75 C 25.203125 -8.351562 22.71875 -7.425781 20 -5.96875 L 13.953125 -2.4375 L 11 -10.828125 L 8.9375 -21.140625 C 8.570312 -25.191406 8.113281 -29.484375 7.5625 -34.015625 C 7.019531 -38.546875 6.472656 -42.410156 5.921875 -45.609375 L 3.859375 -60.359375 L -0.09375 -78.734375 C -0.9375 -83.535156 -1.144531 -87.335938 -0.71875 -90.140625 C -0.289062 -92.953125 1.238281 -95.328125 3.875 -97.265625 C 6.9375 -92.859375 9.664062 -87.554688 12.0625 -81.359375 C 13.269531 -78.265625 14.269531 -75.382812 15.0625 -72.71875 C 15.863281 -70.050781 16.585938 -66.878906 17.234375 -63.203125 L 19.796875 -44.0625 L 21.8125 -29.8125 L 24.09375 -18.0625 Z M 27.453125 -8.75 "/></g></g></g><g fill="#000000" fill-opacity="1"><g transform="translate(205.550688, 254.309434)"><g><path d="M 131.09375 -42.15625 C 131.507812 -39.75 131.363281 -37.988281 130.65625 -36.875 C 129.945312 -35.757812 128.867188 -35.078125 127.421875 -34.828125 C 121.804688 -33.847656 116.457031 -38.039062 111.375 -47.40625 L 102.8125 -69.4375 L 81.828125 -46.453125 C 76.671875 -40.929688 72.171875 -37.832031 68.328125 -37.15625 C 62.878906 -36.207031 54.816406 -38.4375 44.140625 -43.84375 C 30.921875 -50.46875 22.675781 -54.15625 19.40625 -54.90625 L 19.703125 -49 L 20.46875 -43.203125 C 20.945312 -40.472656 21.421875 -37.75 21.890625 -35.03125 C 22.835938 -32.382812 23.519531 -30.359375 23.9375 -28.953125 C 27.613281 -16.367188 29.734375 -8.476562 30.296875 -5.28125 L 29.046875 -5.3125 C 27.117188 -4.976562 25.703125 -4.5625 24.796875 -4.0625 L 18.359375 -1.21875 L 9.640625 -25.71875 C 8.367188 -30.113281 7.210938 -34.363281 6.171875 -38.46875 C 5.128906 -42.582031 4.242188 -46.722656 3.515625 -50.890625 C 3.035156 -53.617188 2.570312 -56.265625 2.125 -58.828125 C 1.6875 -61.390625 1.40625 -64.1875 1.28125 -67.21875 C 1.164062 -70.25 1.691406 -74.101562 2.859375 -78.78125 L 66.71875 -54.96875 C 75.75 -59.019531 84.394531 -68.117188 92.65625 -82.265625 L 103.546875 -102.234375 L 105.484375 -102.578125 L 110.390625 -98.484375 C 111.546875 -97.535156 112.847656 -95.289062 114.296875 -91.75 Z M 131.09375 -42.15625 "/></g></g></g></svg>